PathFileType	4	(X/Y/Z)	Walk4.trc
DataRate	CameraRate	NumFrames	NumMarkers	Units	OrigDataRate	OrigDataStartFrame	OrigNumFrames
200.000000	200.000000	4	59	mm	200.000000	497	583
Frame#	Times		LFHD		RFHD		CLAV		STRN		LASI		RASI		RACR1		RUA1		RElbow		RFA1		RWRR		RWRU		RCAR		LACR1		LUA1		LElbow		LFA1		LWRR		LWRU		LCAR		RTH3		RTH2		RTB1		RTB2		LTH1		LTH3		LTH2		LLFC		LMFC		LTB1		LTB3		LTB2		LTB4		LMT1		LToe		LMT5		RTB4		RTB3		RMFC		LTH4		RTH4		RMT1		RElbowM		RLFC		LBHD		RToe		RMMAL		RTH1		RCAL		RBack		LLMAL		RPSI		C7		LElbowM		T10		LPSI		LMMAL		RBHD		LCAL
			X1	Y1	Z1	X2	Y2	Z2	X3	Y3	Z3	X4	Y4	Z4	X5	Y5	Z5	X6	Y6	Z6	X7	Y7	Z7	X8	Y8	Z8	X9	Y9	Z9	X10	Y10	Z10	X11	Y11	Z11	X12	Y12	Z12	X13	Y13	Z13	X14	Y14	Z14	X15	Y15	Z15	X16	Y16	Z16	X17	Y17	Z17	X18	Y18	Z18	X19	Y19	Z19	X20	Y20	Z20	X21	Y21	Z21	X22	Y22	Z22	X23	Y23	Z23	X24	Y24	Z24	X25	Y25	Z25	X26	Y26	Z26	X27	Y27	Z27	X28	Y28	Z28	X29	Y29	Z29	X30	Y30	Z30	X31	Y31	Z31	X32	Y32	Z32	X33	Y33	Z33	X34	Y34	Z34	X35	Y35	Z35	X36	Y36	Z36	X37	Y37	Z37	X38	Y38	Z38	X39	Y39	Z39	X40	Y40	Z40	X41	Y41	Z41	X42	Y42	Z42	X43	Y43	Z43	X44	Y44	Z44	X45	Y45	Z45	X46	Y46	Z46	X47	Y47	Z47	X48	Y48	Z48	X49	Y49	Z49	X50	Y50	Z50	X51	Y51	Z51	X52	Y52	Z52	X53	Y53	Z53	X54	Y54	Z54	X55	Y55	Z55	X56	Y56	Z56	X57	Y57	Z57	X58	Y58	Z58	X59	Y59	Z59

497	2.485	1039.3	1628.8	-65.012	1036.1	1639.9	33.656	1043.8	1373.7	12.888	1110.4	1216.4	26.984	1004.1	956.34	-141.37	980.76	963.95	219.13	926.14	1469.1	176.35	920.19	1306.7	304.56	949.24	1165.8	362.5	1018.5	1031.6	372.66	1065.5	924.66	299.08	1065.4	928.11	381.19	1116.8	856.05	343.72	932.77	1427.6	-173.3	866.42	1261.9	-249.38	813.67	1105	-288.8	803.42	963.79	-296.77	828.42	833.73	-235.53	777.44	826.23	-289.82	810.92	744.1	-262.55	818.05	580.58	222.4	885.3	661	222.37	749.96	341.64	134.61	665.15	297.35	178.42	998.1	747.54	-167.39	1063.1	591.94	-137.36	1081.9	695.04	-137.98	1072.4	508.73	-133.02	1097.3	513.9	22.385	1164.2	404.71	-68.79	1168	237.41	-28.344	1138.7	308.05	-99.657	1170.7	322.97	-46.988	1258.7	38.192	-10.458	1302.9	44.278	-48.637	1190	24.646	-83.347	684.36	286.34	121.37	619.4	231.7	107.51	787.14	475.63	56.443	1029.2	670.28	-151.88	828.21	665.13	232.41	544.31	38.915	51.806	905.29	1082.4	272.66	770.49	475.36	210.7	891.49	1545.1	-73.608	583.72	23.938	88.046	499.81	166.42	40.126	836.41	750.79	243.64	407.09	199.85	72.796	783.66	1347.1	128.58	1093	71.629	-18.076	732.4	1007.7	53.572	850	1456.8	3.7	747.13	1068	-190.13	781.66	1142.7	23.098	751.76	1008.2	-28.596	1124.8	86.97	65.044	901.94	1567.4	75.193	1050.8	43.596	43.247
498	2.49	1046	1629.8	-65.845	1042.6	1641.1	32.805	1050.4	1375	12.192	1117.2	1217.7	26.539	1010.5	957.45	-142.34	988.03	965.04	218.13	932.83	1470.5	175.57	926.8	1308.2	303.86	955.26	1167.1	361.55	1023.8	1032.5	371.89	1070.1	925.19	298.35	1070.1	928.69	380.46	1120.9	856.11	342.99	939.42	1428.7	-173.92	873.7	1262.7	-249.9	821.6	1105.6	-289.27	812.43	964.33	-297.35	838.53	834.41	-236.27	787.55	826.66	-290.51	821.79	744.8	-263.64	829.12	580.55	223.46	895.36	661.75	222.77	760.47	342.06	136.53	674.83	299.36	180.39	1003.4	747.87	-167.79	1067.5	591.98	-137.48	1086.9	694.96	-138.46	1076.4	508.83	-133	1101.6	514.02	22.418	1167.5	404.15	-68.612	1169.9	236.85	-28.026	1141.3	307.65	-99.46	1173.3	322.39	-46.713	1259	37.727	-10.07	1303.7	43.032	-48.351	1190.2	24.818	-83.284	693.96	287.82	123.4	628.13	234.18	109.68	799.63	474.85	57.969	1034	670.46	-152.05	838.3	665.28	232.99	547.4	41.23	52.355	910.78	1084	271.75	782.42	475.5	212.22	898.15	1546.2	-74.451	585.38	23.702	88.612	507.42	170.97	42.308	845.46	751.08	243.64	416	206.97	75.03	790.37	1348.5	128.16	1093.6	71.71	-17.814	739.15	1008.4	53.181	856.56	1457.9	2.9691	755.63	1068.1	-190.46	788.27	1143.9	22.471	758.37	1009.5	-29.181	1125.3	86.753	65.402	908.49	1568.7	74.328	1051	43.864	43.411
499	2.495	1052.6	1631	-66.603	1049.1	1642.3	32.034	1057	1376.3	11.53	1123.8	1219	26.086	1016.8	958.56	-143.33	995.23	966.14	217.06	939.46	1471.9	174.84	933.29	1309.7	303.18	961.21	1168.4	360.64	1029	1033.3	371.16	1074.7	925.73	297.65	1074.7	929.28	379.76	1124.9	856.16	342.3	946.04	1429.8	-174.52	880.97	1263.5	-250.43	829.52	1106.2	-289.76	821.47	964.96	-297.94	848.72	835.2	-237.03	797.75	827.17	-291.2	832.83	745.62	-264.75	840.36	580.54	224.52	905.53	662.56	223.18	771.29	342.54	138.38	684.89	301.37	182.32	1008.7	748.25	-168.16	1071.8	592.06	-137.59	1091.8	694.9	-138.86	1080.2	508.93	-132.99	1105.8	514.13	22.458	1170.7	403.61	-68.437	1171.7	236.31	-27.728	1143.8	307.27	-99.276	1175.9	321.82	-46.453	1259.4	37.377	-9.7398	1304.5	41.884	-48.145	1190.3	24.983	-83.227	703.91	289.36	125.37	637.24	236.71	111.82	812.35	474.13	59.443	1038.7	670.68	-152.22	848.52	665.43	233.58	551.08	43.746	53.118	916.26	1085.6	270.87	794.59	475.64	213.71	904.75	1547.3	-75.236	587.59	23.54	89.382	515.43	175.53	44.498	854.59	751.39	243.67	425.29	213.97	77.355	797.01	1350	127.71	1094.1	71.787	-17.579	745.84	1009.2	52.778	863.09	1459.1	2.2606	764.13	1068.2	-190.82	794.82	1145	21.794	764.92	1010.8	-29.783	1125.7	86.56	65.723	914.99	1570	73.526	1051.2	44.116	43.564
500	2.5	1059.2	1632.1	-67.284	1055.6	1643.6	31.341	1063.5	1377.7	10.902	1130.5	1220.3	25.621	1023.1	959.66	-144.33	1002.4	967.23	215.94	946.02	1473.3	174.15	939.67	1311.1	302.54	967.1	1169.7	359.77	1034.2	1034.2	370.46	1079.3	926.26	297	1079.3	929.88	379.1	1128.9	856.21	341.65	952.64	1431.1	-175.08	888.23	1264.4	-250.96	837.43	1107	-290.29	830.54	965.66	-298.55	858.99	836.09	-237.79	808.02	827.76	-291.89	844.02	746.57	-265.9	851.75	580.57	225.57	915.79	663.41	223.58	782.42	343.09	140.14	695.35	303.39	184.19	1013.9	748.69	-168.51	1076.1	592.17	-137.71	1096.7	694.88	-139.18	1084	509.03	-133	1109.8	514.22	22.495	1173.7	403.07	-68.268	1173.4	235.78	-27.454	1146.2	306.89	-99.11	1178.2	321.27	-46.211	1259.7	37.123	-9.4657	1305.3	40.824	-48.013	1190.5	25.135	-83.181	714.19	290.96	127.25	646.71	239.27	113.88	825.26	473.51	60.854	1043.4	670.95	-152.38	858.84	665.6	234.19	555.42	46.442	54.108	921.74	1087.2	270.04	806.99	475.8	215.16	911.31	1548.5	-75.963	590.43	23.486	90.375	523.82	180.09	46.669	863.78	751.69	243.72	434.93	220.8	79.749	803.58	1351.4	127.24	1094.5	71.86	-17.371	752.46	1010	52.375	869.59	1460.3	1.5778	772.63	1068.3	-191.2	801.32	1146.3	21.082	771.43	1012.2	-30.394	1126.1	86.391	66.004	921.45	1571.3	72.788	1051.4	44.352	43.7
